<svg xmlns="http://www.w3.org/2000/svg" width="54.002" height="49.997" viewBox="24 0 54.002 49.997"><path d="M77.405 9.564a2.64 2.64 0 0 0-2.056-.977h-41.3l-.834-4.051a2.656 2.656 0 0 0-1.541-1.899L25.854.11A1.326 1.326 0 0 0 25.48.01a1.326 1.326 0 0 0-1.37.79 1.327 1.327 0 0 0-.101.374c-.066.566.24 1.132.79 1.37l5.819 2.528 6.415 31.159a2.662 2.662 0 0 0 2.598 2.118h31.764a1.326 1.326 0 0 0 1.326-1.327c0-.733-.593-1.327-1.326-1.327H39.631l-.78-3.79h32.79c1.252 0 2.344-.89 2.597-2.117l3.709-18.012a2.685 2.685 0 0 0 .039-.25 2.643 2.643 0 0 0-.581-1.96ZM71.64 29.251H38.304l-3.708-18.01h40.753l-3.708 18.01Zm-8.339 11.242a4.756 4.756 0 0 0-4.75 4.752c0 2.62 2.131 4.752 4.75 4.752a4.756 4.756 0 0 0 4.75-4.752c0-2.62-2.131-4.752-4.75-4.752Zm-16.659 0a4.756 4.756 0 0 0-4.749 4.752c0 2.62 2.13 4.752 4.75 4.752a4.756 4.756 0 0 0 4.749-4.752c0-2.62-2.131-4.752-4.75-4.752Zm16.66 6.85a2.1 2.1 0 0 1-2.098-2.098 2.1 2.1 0 0 1 2.097-2.1 2.1 2.1 0 0 1 2.098 2.1 2.1 2.1 0 0 1-2.098 2.098Zm-18.757-2.098a2.1 2.1 0 0 0 2.097 2.098 2.1 2.1 0 0 0 2.098-2.098 2.1 2.1 0 0 0-2.098-2.1 2.1 2.1 0 0 0-2.097 2.1Z" fill="rgba(0, 0, 0, 1)" fill-rule="evenodd" data-name="Shopping cart"/></svg>